<svg xmlns="http://www.w3.org/2000/svg" viewBox="0 0 192 192" role="img" aria-labelledby="title"><title id="title">LunaLav</title><defs><linearGradient id="sky" x1="0" y1="0" x2="1" y2="1"><stop stop-color="#54c5f5"/><stop offset="1" stop-color="#168ddd"/></linearGradient><mask id="crescent"><rect width="192" height="192" fill="#fff"/><circle cx="129" cy="61" r="57" fill="#000"/></mask></defs><rect width="192" height="192" rx="44" fill="#0b3d78"/><circle cx="88" cy="101" r="70" fill="url(#sky)" mask="url(#crescent)"/><path d="M24 121c18-12 35-13 51-2 17 11 34 11 51-1 12-8 23-9 34-5" fill="none" stroke="#fff" stroke-width="7" stroke-linecap="round"/><path d="M107 31l3.5 8.5 8.5 3.5-8.5 3.5-3.5 8.5-3.5-8.5-8.5-3.5 8.5-3.5Z" fill="#fff"/><path d="M78 52l2.5 6.3 6.3 2.5-6.3 2.5-2.5 6.3-2.5-6.3-6.3-2.5 6.3-2.5Z" fill="#fff"/></svg>
